<svg xmlns="http://www.w3.org/2000/svg" xmlns:xlink="http://www.w3.org/1999/xlink" viewBox="0 0 431.03 431.03"><defs><style>.cls-1{fill:url(#linear-gradient);}.cls-2{fill:url(#linear-gradient-2);}.cls-3{fill:url(#linear-gradient-3);}</style><linearGradient id="linear-gradient" x1="258.62" y1="172.41" x2="431.03" y2="172.41" gradientUnits="userSpaceOnUse"><stop offset="0" stop-color="#03aff2"/><stop offset="0.34" stop-color="#02b8f2"/><stop offset="0.89" stop-color="#00d2f2"/><stop offset="0.99" stop-color="#00d7f2"/></linearGradient><linearGradient id="linear-gradient-2" y1="301.72" x2="258.62" y2="301.72" gradientUnits="userSpaceOnUse"><stop offset="0" stop-color="#03aff2"/><stop offset="0.99" stop-color="#03aff2"/></linearGradient><linearGradient id="linear-gradient-3" x1="86.21" y1="172.41" x2="344.82" y2="172.41" xlink:href="#linear-gradient-2"/></defs><g id="Layer_2" data-name="Layer 2"><g id="Layer_1-2" data-name="Layer 1"><polygon class="cls-1" points="387.93 258.62 366.37 237.07 344.83 215.52 280.17 150.86 258.62 129.31 301.72 86.2 344.83 129.31 366.37 150.86 431.03 215.52 409.48 237.06 387.93 258.62"/><polygon class="cls-2" points="215.52 431.03 43.1 258.62 21.55 237.07 0 215.52 21.55 193.96 43.1 172.41 107.76 237.07 129.3 258.62 150.86 280.17 215.52 344.83 237.06 366.38 258.62 387.93 237.06 409.48 215.52 431.03"/><polygon class="cls-3" points="301.72 344.82 280.17 323.27 258.62 301.72 193.96 237.06 172.41 215.52 150.86 193.96 86.2 129.3 107.76 107.76 129.31 86.2 150.86 64.65 193.96 21.55 215.52 0 258.62 43.1 237.07 64.65 193.96 107.76 172.41 129.3 215.52 172.41 237.06 193.96 301.72 258.62 323.27 280.17 344.82 301.72 323.27 323.27 301.72 344.82"/></g></g></svg>