<svg xmlns="http://www.w3.org/2000/svg" viewBox="0 0 139 139"><defs><style>.cls-1{fill:#1a1a1a;}.cls-2,.cls-4{fill:#fff;}.cls-2{stroke:#000;stroke-miterlimit:10;opacity:0.3;}.cls-3{fill:#f2f2f2;}</style></defs><g id="Layer_2" data-name="Layer 2"><g id="Layer_1-2" data-name="Layer 1"><g id="Logo_color" data-name="Logo color"><circle class="cls-1" cx="69.5" cy="69.5" r="69.5"/><circle class="cls-2" cx="69.5" cy="69.5" r="43.5"/><path class="cls-3" d="M17.21,57.61l-5.38-4,.26-1.19,9,2-.27,1.23L14.08,54.2l.42,0,4.61,3.33-.19.88-5.46,1.13L13,59.4l6.75,1.48-.27,1.23-9-2L10.67,59Z"/><path class="cls-3" d="M22.56,50.55l-8.38-3.88.54-1.18,8.38,3.88Zm-7-3.93-1.11-.52,2.22-4.81,1.12.52Zm3.66,1.69-1.12-.52L20,43.62l1.11.51ZM22.82,50l-1.12-.52,2.23-4.81,1.12.52Z"/><path class="cls-3" d="M27,41.92l-7.43-5.48.77-1,7.43,5.48Zm-2.8-2.77-1-.74,1.87-2.53a1.16,1.16,0,0,0,.22-1,1.57,1.57,0,0,0-.64-.9,1.53,1.53,0,0,0-1-.34,1.11,1.11,0,0,0-.85.5l-1.87,2.53-1-.73,1.83-2.49a2.89,2.89,0,0,1,1.11-.94,2.34,2.34,0,0,1,1.3-.2,2.91,2.91,0,0,1,1.33.56A2.86,2.86,0,0,1,26.39,34a2.32,2.32,0,0,1,.19,1.3A2.81,2.81,0,0,1,26,36.65Zm5.89-1.41L25.44,37,26,35.74l5,.76Z"/><path class="cls-3" d="M32.64,34.62,29,25.49l.82-.74,8.71,4.57-1,.94-6.89-3.81,3.09,7.24Zm-.2-2.55-.82-.91,3.6-3.26.82.91Z"/><path class="cls-3" d="M41.2,27.43l-4.6-8,1-.58,7.47,3.93L45,23,41.4,16.67,42.51,16l4.6,8-1,.6-7.41-3.85,0-.22,3.59,6.24Z"/><path class="cls-3" d="M47.76,15l-.38-1.17,6.18-2L54,13Zm5,6.78-2.66-8,1.23-.41L54,21.41Z"/><path class="cls-3" d="M59.57,10.63l1.56,9.1L59.85,20l-1.56-9.1Z"/><path class="cls-3" d="M74.34,19.49a3.15,3.15,0,0,1-1.64-.6,2.88,2.88,0,0,1-1-1.31,3.92,3.92,0,0,1-.21-1.84l.26-2.52a3.82,3.82,0,0,1,.58-1.76,2.87,2.87,0,0,1,1.24-1.08,3.41,3.41,0,0,1,3.15.23,3.2,3.2,0,0,1,1,1.07,3.52,3.52,0,0,1,.46,1.5L76.87,13a2.06,2.06,0,0,0-.32-.81,2.14,2.14,0,0,0-.61-.59,1.91,1.91,0,0,0-.76-.26,1.73,1.73,0,0,0-1.43.45,2.34,2.34,0,0,0-.67,1.53l-.26,2.52a2.31,2.31,0,0,0,.35,1.62,1.72,1.72,0,0,0,1.3.74A1.91,1.91,0,0,0,75.64,18a1.82,1.82,0,0,0,.82-1l1.32.13A3.44,3.44,0,0,1,77,18.46a3.12,3.12,0,0,1-2.69,1Z"/><path class="cls-3" d="M81.11,20.52,83.8,11.7l1.24.37L82.35,20.9Zm.62.19.36-1.18,5,1.55-.36,1.17Z"/><path class="cls-3" d="M92.43,25.06a3.43,3.43,0,0,1-1.31-1.18,2.91,2.91,0,0,1-.43-1.58,3.74,3.74,0,0,1,.48-1.77l1.24-2.31a3.75,3.75,0,0,1,1.2-1.39,2.87,2.87,0,0,1,1.56-.51,3.28,3.28,0,0,1,1.7.43,3.36,3.36,0,0,1,1.31,1.18,2.87,2.87,0,0,1,.44,1.58,3.82,3.82,0,0,1-.49,1.77l-1.23,2.3A3.67,3.67,0,0,1,95.7,25a2.88,2.88,0,0,1-1.56.52A3.44,3.44,0,0,1,92.43,25.06Zm.6-1.13a1.78,1.78,0,0,0,1.5.15A2.16,2.16,0,0,0,95.71,23L97,20.61A2.12,2.12,0,0,0,97.23,19a1.82,1.82,0,0,0-1-1.16,1.8,1.8,0,0,0-1.49-.15,2.14,2.14,0,0,0-1.18,1.09l-1.28,2.38a2.16,2.16,0,0,0-.24,1.58A1.81,1.81,0,0,0,93,23.93Z"/><path class="cls-3" d="M99.73,29.7,105,23.09l1,.81-5.31,6.61Zm3-7.87.77-1L108.56,25l-.77,1Z"/><path class="cls-3" d="M105.09,34.41l7.07-5.94.83,1-7.06,5.94Zm3.38,4,7.06-5.94.83,1-7.06,5.94Zm.15-5.92.94-.8,3.3,3.92-.94.8Z"/><path class="cls-3" d="M120.27,39.55l-8,4.69-.65-1.11,7.94-4.69Z"/><path class="cls-3" d="M114.43,48.05,123,44.77l.42,1.1-5.06,6.75-.21-.08,6.83-2.6.45,1.2-8.62,3.28-.42-1.11,5-6.7.21.08-6.72,2.56Z"/><path class="cls-3" d="M123.25,60.82l.48,3.17-1.6.24a3.94,3.94,0,0,1-1.86-.13,3,3,0,0,1-1.36-.93,3.29,3.29,0,0,1-.67-1.62,3.52,3.52,0,0,1,.14-1.76,2.81,2.81,0,0,1,1-1.3,3.56,3.56,0,0,1,1.63-.66l2.7-.4a3.9,3.9,0,0,1,1.85.12,3,3,0,0,1,1.36.94,3.31,3.31,0,0,1,.68,1.62,3.11,3.11,0,0,1-.91,2.75,3.5,3.5,0,0,1-1.33.81l-.21-1.38a1.88,1.88,0,0,0,1.2-2,1.74,1.74,0,0,0-.8-1.28,2.3,2.3,0,0,0-1.65-.28l-2.69.4a2,2,0,0,0-1.35.74,1.91,1.91,0,0,0-.32,1.48,1.74,1.74,0,0,0,.77,1.28,2.26,2.26,0,0,0,1.65.28l.39-.06L122,61Z"/><path class="cls-3" d="M115.64,86.86l1.13.49-2.1,4.86-1.13-.49Zm.25-.58L124.36,90l-.51,1.19-8.47-3.67Zm3.39,2.16,1.13.49-1.83,4.22-1.12-.49ZM123,90l1.13.49L122,95.39l-1.13-.49Z"/><path class="cls-3" d="M110,97.26a6.12,6.12,0,0,1,.83-1,4.78,4.78,0,0,1,.94-.7,5,5,0,0,1,1.07-.43l.36,1.23A3.62,3.62,0,0,0,112,97a4.2,4.2,0,0,0-1,1,2.82,2.82,0,0,0-.58,1.49,1.22,1.22,0,0,0,.55,1.06h0a1.1,1.1,0,0,0,.83.23,1.73,1.73,0,0,0,.76-.37,8.88,8.88,0,0,0,.75-.68c.24-.26.5-.5.77-.75a3.43,3.43,0,0,1,.86-.58,1.84,1.84,0,0,1,1-.17,2.77,2.77,0,0,1,1.21.51h0a2.45,2.45,0,0,1,1.15,1.84,3.74,3.74,0,0,1-.8,2.39,4.46,4.46,0,0,1-1,1.06,4.94,4.94,0,0,1-1.39.72l-.42-1.19a4.53,4.53,0,0,0,1.08-.53,3.18,3.18,0,0,0,.75-.76,2.51,2.51,0,0,0,.53-1.42,1.24,1.24,0,0,0-.58-1h0a1,1,0,0,0-.82-.2,1.85,1.85,0,0,0-.79.42c-.26.22-.53.46-.8.73s-.51.47-.78.7a3.52,3.52,0,0,1-.87.52,1.89,1.89,0,0,1-1,.13,2.52,2.52,0,0,1-1.15-.5h0a2.37,2.37,0,0,1-1.12-1.86A3.93,3.93,0,0,1,110,97.26Z"/><path class="cls-3" d="M104.62,103.94l6,6-.92.91-6-6Zm7.48,3.83.87.88-4.62,4.59-.87-.88Z"/><path class="cls-3" d="M99.91,108.17l.82,1.07-1.07.83L98.83,109Z"/><path class="cls-3" d="M87.79,115.12a6.18,6.18,0,0,1,1.22-.36,4.7,4.7,0,0,1,1.18-.06,4.91,4.91,0,0,1,1.13.22L91,116.14a3.63,3.63,0,0,0-1.34-.19,4,4,0,0,0-1.36.3,2.75,2.75,0,0,0-1.3.93,1.24,1.24,0,0,0-.12,1.18h0a1.1,1.1,0,0,0,.56.64,1.71,1.71,0,0,0,.83.11,8.19,8.19,0,0,0,1-.17l1.05-.2a3.37,3.37,0,0,1,1,0,1.84,1.84,0,0,1,.94.41,2.7,2.7,0,0,1,.73,1.1h0a2.42,2.42,0,0,1,0,2.17A3.66,3.66,0,0,1,91,124a4.72,4.72,0,0,1-1.44.33,5,5,0,0,1-1.56-.16l.3-1.23a4.27,4.27,0,0,0,1.19.15,3.33,3.33,0,0,0,1.05-.22,2.55,2.55,0,0,0,1.22-.9,1.25,1.25,0,0,0,.08-1.19h0a1,1,0,0,0-.58-.62,2,2,0,0,0-.89-.07c-.34,0-.7.1-1.08.17s-.68.12-1,.16a3.77,3.77,0,0,1-1,0,2,2,0,0,1-.89-.43,2.6,2.6,0,0,1-.7-1v0a2.37,2.37,0,0,1,.08-2.16A4,4,0,0,1,87.79,115.12Z"/><path class="cls-3" d="M81.76,126.74l-2.08-9,1.26-.3,2.08,9Z"/><path class="cls-3" d="M75.39,118.6l.55,9.21-1.18.07L69.84,121l.14-.17.43,7.29-1.28.07L68.59,119l1.18-.07,4.91,6.75-.14.18-.43-7.18Z"/><path class="cls-3" d="M61.43,118.22a3.22,3.22,0,0,1,1.6.67,2.87,2.87,0,0,1,.93,1.36,3.76,3.76,0,0,1,.13,1.85l-.37,2.5a3.87,3.87,0,0,1-.67,1.74,2.92,2.92,0,0,1-1.29,1,3.19,3.19,0,0,1-1.73.17,3.06,3.06,0,0,1-2.35-1.66,3.6,3.6,0,0,1-.39-1.52l1.31.2a2,2,0,0,0,.29.83,2,2,0,0,0,.58.61,1.75,1.75,0,0,0,.75.3,1.71,1.71,0,0,0,1.44-.4,2.34,2.34,0,0,0,.75-1.49l.37-2.5a2.27,2.27,0,0,0-.28-1.64,1.71,1.71,0,0,0-1.26-.79,1.91,1.91,0,0,0-1.18.21,1.8,1.8,0,0,0-.87,1l-1.31-.2a3.49,3.49,0,0,1,.81-1.34,3.18,3.18,0,0,1,1.24-.78A3.14,3.14,0,0,1,61.43,118.22Z"/><path class="cls-3" d="M51.42,124.21,51,125.36l-5-1.79.41-1.16Zm1.36-3.8-.41,1.16L48,120l.41-1.15Zm1.34-3.73-.41,1.16-5-1.8.41-1.15Zm.59.21-3.12,8.69-1.21-.44,3.12-8.69Z"/><path class="cls-3" d="M41,110.35l-.68.9-5.16,1.48a3.4,3.4,0,0,0-.8.35,1.87,1.87,0,0,0-.57.5h0a1.12,1.12,0,0,0-.26.88,1.27,1.27,0,0,0,.55.79,1.29,1.29,0,0,0,.93.29,1.52,1.52,0,0,0,.91-.5h0l1.07.81h0a3.06,3.06,0,0,1-1.81,1,2.51,2.51,0,0,1-1.83-.56,2.74,2.74,0,0,1-1.16-1.66,2.31,2.31,0,0,1,.53-1.83h0a2.82,2.82,0,0,1,.78-.7,4.22,4.22,0,0,1,1.06-.47l4.33-1.29-2.79-2.1.74-1Z"/><path class="cls-3" d="M32.37,102.73a2.54,2.54,0,0,1,.82,1.93,2.72,2.72,0,0,1-1,1.78l-3.09,2.84a2.64,2.64,0,0,1-1.87.81,2.57,2.57,0,0,1-1.84-1,2.61,2.61,0,0,1-.83-1.92,2.67,2.67,0,0,1,1-1.79l3.09-2.85a2.68,2.68,0,0,1,1.86-.81A2.57,2.57,0,0,1,32.37,102.73Zm-.91.83a1.24,1.24,0,0,0-1-.5,1.44,1.44,0,0,0-1,.46l-3.09,2.84a1.52,1.52,0,0,0-.54.92,1.29,1.29,0,0,0,.42,1,1.32,1.32,0,0,0,1,.5,1.53,1.53,0,0,0,1-.46l3.09-2.84a1.54,1.54,0,0,0,.54-.93A1.25,1.25,0,0,0,31.46,103.56Z"/><path class="cls-3" d="M28.19,97.81l-1,.6L21.9,98A3.64,3.64,0,0,0,21,98a2.06,2.06,0,0,0-.71.27h0a1.09,1.09,0,0,0-.55.73A1.28,1.28,0,0,0,20,100a1.3,1.3,0,0,0,.77.59,1.53,1.53,0,0,0,1-.14h0l.72,1.13h0a3,3,0,0,1-2,.25A2.47,2.47,0,0,1,19,100.65a2.76,2.76,0,0,1-.5-2,2.29,2.29,0,0,1,1.14-1.53h0a2.87,2.87,0,0,1,1-.38,4.1,4.1,0,0,1,1.17-.07l4.49.31-1.86-3,1-.65Z"/><path class="cls-3" d="M22.91,87.88a3.14,3.14,0,0,1,.26,1.37,2.35,2.35,0,0,1-.4,1.18,3.07,3.07,0,0,1-1,.91l-.5-1.22a1.22,1.22,0,0,0,.63-.77,1.59,1.59,0,0,0-.11-1,1.35,1.35,0,0,0-.7-.79,1.26,1.26,0,0,0-1,0l-.26.1a1.51,1.51,0,0,0-.86.72,1.21,1.21,0,0,0,0,1l.25.61L18,90.5l-.24-.6a1.1,1.1,0,0,0-.62-.66,1.31,1.31,0,0,0-1,.07l-.26.11a1.13,1.13,0,0,0-.67.61,1.3,1.3,0,0,0,.06.94,1.24,1.24,0,0,0,.57.66,1.48,1.48,0,0,0,1,.1l.5,1.22a3,3,0,0,1-2-.15,2.47,2.47,0,0,1-1.23-1.36,2.58,2.58,0,0,1-.12-2,2.34,2.34,0,0,1,1.4-1.27l.14-.06a2,2,0,0,1,1.25-.11,2.16,2.16,0,0,1,1.1.7,1.9,1.9,0,0,1,.24-1.37,2.56,2.56,0,0,1,1.21-.94l.14-.06a2.52,2.52,0,0,1,2-.06A2.73,2.73,0,0,1,22.91,87.88Z"/><rect class="cls-4" x="71.62" y="59.47" width="8.47" height="4.12"/><polygon class="cls-4" points="92.79 59.48 92.79 67.71 88.56 67.71 88.56 63.59 84.32 63.59 84.32 59.48 92.79 59.48"/><polygon class="cls-4" points="92.79 71.83 92.79 80.07 46.21 80.07 46.21 59.48 54.68 59.48 54.68 63.59 50.44 63.59 50.44 75.95 88.56 75.95 88.56 71.83 92.79 71.83"/><rect class="cls-4" x="58.91" y="59.47" width="8.47" height="4.12"/><polygon class="cls-4" points="71.62 80.07 71.62 96.31 71.2 96.54 69.5 97.5 67.8 96.54 67.38 96.31 67.38 80.07 71.62 80.07"/><polygon class="cls-4" points="84.32 43 84.32 75.95 80.09 75.95 80.09 48.75 77.97 49.94 75.85 51.13 75.66 51.24 73.74 52.32 71.62 53.51 71.62 75.95 67.38 75.95 67.38 53.51 65.26 52.32 63.34 51.24 63.15 51.13 61.03 49.94 58.91 48.75 58.91 75.95 54.68 75.95 54.68 43 57.14 43 58.91 43.99 61.03 45.18 63.15 46.37 64.48 47.12 65.27 47.56 67.38 48.75 69.5 49.94 71.62 48.75 73.73 47.56 74.52 47.12 75.85 46.37 77.97 45.18 80.09 43.99 81.86 43 84.32 43"/><polygon class="cls-4" points="84.32 80.07 84.32 89.18 82.21 90.36 80.09 89.18 80.09 80.07 84.32 80.07"/><polygon class="cls-4" points="58.91 80.07 58.91 89.18 56.79 90.36 54.68 89.18 54.68 80.07 58.91 80.07"/></g></g></g></svg>