<svg xmlns="http://www.w3.org/2000/svg" viewBox="0 0 140 140"><defs><style>.cls-1{fill:none;stroke:#000;stroke-miterlimit:10;}</style></defs><g id="Layer_2" data-name="Layer 2"><g id="Layer_1-2" data-name="Layer 1"><rect class="cls-1" x="72.12" y="59.97" width="8.47" height="4.12"/><polygon class="cls-1" points="93.29 59.98 93.29 68.21 89.06 68.21 89.06 64.09 84.82 64.09 84.82 59.98 93.29 59.98"/><polygon class="cls-1" points="93.29 72.33 93.29 80.57 46.71 80.57 46.71 59.98 55.18 59.98 55.18 64.09 50.94 64.09 50.94 76.45 89.06 76.45 89.06 72.33 93.29 72.33"/><rect class="cls-1" x="59.41" y="59.97" width="8.47" height="4.12"/><polygon class="cls-1" points="72.12 80.57 72.12 96.81 71.7 97.04 70 98 68.3 97.04 67.88 96.81 67.88 80.57 72.12 80.57"/><polygon class="cls-1" points="84.82 43.5 84.82 76.45 80.59 76.45 80.59 49.25 78.47 50.44 76.35 51.63 76.16 51.74 74.24 52.82 72.12 54.01 72.12 76.45 67.88 76.45 67.88 54.01 65.76 52.82 63.84 51.74 63.65 51.63 61.53 50.44 59.41 49.25 59.41 76.45 55.18 76.45 55.18 43.5 57.64 43.5 59.41 44.49 61.53 45.68 63.65 46.87 64.98 47.62 65.77 48.06 67.88 49.25 70 50.44 72.12 49.25 74.23 48.06 75.02 47.62 76.35 46.87 78.47 45.68 80.59 44.49 82.36 43.5 84.82 43.5"/><polygon class="cls-1" points="84.82 80.57 84.82 89.68 82.71 90.86 80.59 89.68 80.59 80.57 84.82 80.57"/><polygon class="cls-1" points="59.41 80.57 59.41 89.68 57.29 90.86 55.18 89.68 55.18 80.57 59.41 80.57"/><path d="M17.71,58.11l-5.38-4L12.59,53l9,2-.27,1.23L14.58,54.7l.42,0,4.61,3.33-.19.88L14,60.07l-.51-.17,6.75,1.48-.27,1.23-9-2,.26-1.19Z"/><path d="M23.06,51.05l-8.38-3.88L15.22,46l8.38,3.88Zm-7-3.93L15,46.6l2.22-4.81,1.12.52Zm3.66,1.69-1.12-.52,1.94-4.17,1.11.51Zm3.6,1.67L22.2,50l2.23-4.81,1.12.52Z"/><path d="M27.48,42.42l-7.43-5.48.77-1,7.43,5.48Zm-2.8-2.77-1-.74,1.87-2.53a1.16,1.16,0,0,0,.22-1,1.57,1.57,0,0,0-.64-.9,1.53,1.53,0,0,0-1-.34,1.11,1.11,0,0,0-.85.5l-1.87,2.53-1-.73L22.22,34a2.89,2.89,0,0,1,1.11-.94,2.34,2.34,0,0,1,1.3-.2,2.91,2.91,0,0,1,1.33.56,2.86,2.86,0,0,1,.93,1.11,2.32,2.32,0,0,1,.19,1.3,2.81,2.81,0,0,1-.56,1.33Zm5.89-1.41-4.63-.79.53-1.21,5,.76Z"/><path d="M33.14,35.12,29.47,26l.82-.74L39,29.82l-1,.94L31.08,27l3.09,7.24Zm-.2-2.55-.82-.91,3.6-3.26.82.91Z"/><path d="M41.7,27.93l-4.6-8,1-.58,7.47,3.93-.05.22L41.9,17.17,43,16.53l4.6,8-1,.6-7.41-3.85,0-.22,3.59,6.24Z"/><path d="M48.26,15.54l-.38-1.17,6.18-2,.39,1.17Zm5,6.78-2.66-8,1.23-.41,2.66,8.05Z"/><path d="M60.07,11.13l1.56,9.1-1.28.22-1.56-9.1Z"/><path d="M74.84,20a3.15,3.15,0,0,1-1.64-.6,2.88,2.88,0,0,1-1-1.31A3.92,3.92,0,0,1,72,16.24l.26-2.52A3.82,3.82,0,0,1,72.84,12a2.87,2.87,0,0,1,1.24-1.08,3.41,3.41,0,0,1,3.15.23,3.2,3.2,0,0,1,1,1.07,3.52,3.52,0,0,1,.46,1.5l-1.32-.14a2.06,2.06,0,0,0-.32-.81,2.14,2.14,0,0,0-.61-.59,1.91,1.91,0,0,0-.76-.26,1.73,1.73,0,0,0-1.43.45,2.34,2.34,0,0,0-.67,1.53l-.26,2.52A2.31,2.31,0,0,0,73.67,18a1.72,1.72,0,0,0,1.3.74,1.91,1.91,0,0,0,1.17-.27,1.82,1.82,0,0,0,.82-1l1.32.13A3.44,3.44,0,0,1,77.53,19a3.12,3.12,0,0,1-2.69,1Z"/><path d="M81.61,21,84.3,12.2l1.24.37L82.85,21.4Zm.62.19L82.59,20l5,1.55-.36,1.17Z"/><path d="M92.93,25.56a3.43,3.43,0,0,1-1.31-1.18,2.91,2.91,0,0,1-.43-1.58A3.74,3.74,0,0,1,91.67,21l1.24-2.31a3.75,3.75,0,0,1,1.2-1.39,2.87,2.87,0,0,1,1.56-.51,3.28,3.28,0,0,1,1.7.43,3.36,3.36,0,0,1,1.31,1.18A2.87,2.87,0,0,1,99.12,20a3.82,3.82,0,0,1-.49,1.77l-1.23,2.3a3.67,3.67,0,0,1-1.2,1.39,2.88,2.88,0,0,1-1.56.52A3.44,3.44,0,0,1,92.93,25.56Zm.6-1.13a1.78,1.78,0,0,0,1.5.15,2.16,2.16,0,0,0,1.18-1.08l1.27-2.39a2.12,2.12,0,0,0,.25-1.58,1.82,1.82,0,0,0-1-1.16,1.8,1.8,0,0,0-1.49-.15,2.14,2.14,0,0,0-1.18,1.09l-1.28,2.38a2.16,2.16,0,0,0-.24,1.58A1.81,1.81,0,0,0,93.53,24.43Z"/><path d="M100.23,30.2l5.31-6.61,1,.81L101.24,31Zm3-7.87.77-1,5.08,4.08-.77,1Z"/><path d="M105.59,34.91,112.66,29l.83,1-7.06,5.94Zm3.38,4L116,33l.83,1-7.06,5.94Zm.15-5.92.94-.8,3.3,3.92-.94.8Z"/><path d="M120.77,40.05l-8,4.69-.65-1.11,7.94-4.69Z"/><path d="M114.93,48.55l8.61-3.28.42,1.1-5.06,6.75-.21-.08,6.83-2.6.45,1.2-8.62,3.28-.42-1.11,5-6.7.21.08-6.72,2.56Z"/><path d="M123.75,61.32l.48,3.17-1.6.24a3.94,3.94,0,0,1-1.86-.13,3,3,0,0,1-1.36-.93,3.29,3.29,0,0,1-.67-1.62,3.52,3.52,0,0,1,.14-1.76,2.81,2.81,0,0,1,1-1.3,3.56,3.56,0,0,1,1.63-.66l2.7-.4a3.9,3.9,0,0,1,1.85.12,3,3,0,0,1,1.36.94,3.31,3.31,0,0,1,.68,1.62,3.11,3.11,0,0,1-.91,2.75,3.5,3.5,0,0,1-1.33.81l-.21-1.38a1.88,1.88,0,0,0,1.2-2,1.74,1.74,0,0,0-.8-1.28,2.3,2.3,0,0,0-1.65-.28l-2.69.4a2,2,0,0,0-1.35.74,1.91,1.91,0,0,0-.32,1.48,1.74,1.74,0,0,0,.77,1.28,2.26,2.26,0,0,0,1.65.28l.39-.06-.27-1.85Z"/><path d="M116.14,87.36l1.13.49-2.1,4.86L114,92.22Zm.25-.58,8.47,3.67-.51,1.19L115.88,88Zm3.39,2.16,1.13.49-1.83,4.22L118,93.16Zm3.7,1.6,1.13.49-2.1,4.86-1.13-.49Z"/><path d="M110.5,97.76a6.12,6.12,0,0,1,.83-1,4.78,4.78,0,0,1,.94-.7,5,5,0,0,1,1.07-.43l.36,1.23a3.62,3.62,0,0,0-1.23.56,4.2,4.2,0,0,0-1,1,2.82,2.82,0,0,0-.58,1.49,1.22,1.22,0,0,0,.55,1.06h0a1.1,1.1,0,0,0,.83.23,1.73,1.73,0,0,0,.76-.37,8.88,8.88,0,0,0,.75-.68c.24-.26.5-.5.77-.75a3.43,3.43,0,0,1,.86-.58,1.84,1.84,0,0,1,1-.17,2.77,2.77,0,0,1,1.21.51h0a2.45,2.45,0,0,1,1.15,1.84,3.74,3.74,0,0,1-.8,2.39,4.46,4.46,0,0,1-1,1.06,4.94,4.94,0,0,1-1.39.72L115.2,104a4.53,4.53,0,0,0,1.08-.53,3.18,3.18,0,0,0,.75-.76,2.51,2.51,0,0,0,.53-1.42,1.24,1.24,0,0,0-.58-1h0a1,1,0,0,0-.82-.2,1.85,1.85,0,0,0-.79.42c-.26.22-.53.46-.8.73s-.51.47-.78.7a3.52,3.52,0,0,1-.87.52,1.89,1.89,0,0,1-1,.13,2.52,2.52,0,0,1-1.15-.5h0a2.37,2.37,0,0,1-1.12-1.86A3.93,3.93,0,0,1,110.5,97.76Z"/><path d="M105.12,104.44l6,6-.92.91-6-6Zm7.48,3.83.87.88-4.62,4.59-.87-.88Z"/><path d="M100.41,108.67l.82,1.07-1.07.83-.83-1.08Z"/><path d="M88.29,115.62a6.18,6.18,0,0,1,1.22-.36,4.7,4.7,0,0,1,1.18-.06,4.91,4.91,0,0,1,1.13.22l-.37,1.22a3.63,3.63,0,0,0-1.34-.19,4,4,0,0,0-1.36.3,2.75,2.75,0,0,0-1.3.93,1.24,1.24,0,0,0-.12,1.18h0a1.1,1.1,0,0,0,.56.64,1.71,1.71,0,0,0,.83.11,8.19,8.19,0,0,0,1-.17l1.05-.2a3.37,3.37,0,0,1,1,0,1.84,1.84,0,0,1,.94.41,2.7,2.7,0,0,1,.73,1.1h0a2.42,2.42,0,0,1,0,2.17,3.66,3.66,0,0,1-2,1.57,4.72,4.72,0,0,1-1.44.33,5,5,0,0,1-1.56-.16l.3-1.23a4.27,4.27,0,0,0,1.19.15,3.33,3.33,0,0,0,1.05-.22,2.55,2.55,0,0,0,1.22-.9,1.25,1.25,0,0,0,.08-1.19h0a1,1,0,0,0-.58-.62,2,2,0,0,0-.89-.07c-.34,0-.7.1-1.08.17s-.68.12-1,.16a3.77,3.77,0,0,1-1,0,2,2,0,0,1-.89-.43,2.6,2.6,0,0,1-.7-1v0a2.37,2.37,0,0,1,.08-2.16A4,4,0,0,1,88.29,115.62Z"/><path d="M82.26,127.24l-2.08-9,1.26-.3,2.08,9Z"/><path d="M75.89,119.1l.55,9.21-1.18.07-4.92-6.86.14-.17.43,7.29-1.28.07-.54-9.21,1.18-.07,4.91,6.75-.14.18-.43-7.18Z"/><path d="M61.93,118.72a3.22,3.22,0,0,1,1.6.67,2.87,2.87,0,0,1,.93,1.36,3.76,3.76,0,0,1,.13,1.85l-.37,2.5a3.87,3.87,0,0,1-.67,1.74,2.92,2.92,0,0,1-1.29,1,3.19,3.19,0,0,1-1.73.17,3.06,3.06,0,0,1-2.35-1.66,3.6,3.6,0,0,1-.39-1.52l1.31.2a2,2,0,0,0,.29.83,2,2,0,0,0,.58.61,1.75,1.75,0,0,0,.75.3,1.71,1.71,0,0,0,1.44-.4,2.34,2.34,0,0,0,.75-1.49l.37-2.5a2.27,2.27,0,0,0-.28-1.64,1.71,1.71,0,0,0-1.26-.79,1.91,1.91,0,0,0-1.18.21,1.8,1.8,0,0,0-.87,1l-1.31-.2a3.49,3.49,0,0,1,.81-1.34,3.18,3.18,0,0,1,1.24-.78A3.14,3.14,0,0,1,61.93,118.72Z"/><path d="M51.92,124.71l-.42,1.15-5-1.79.41-1.16Zm1.36-3.8-.41,1.16-4.33-1.56.41-1.15Zm1.34-3.73-.41,1.16-5-1.8.41-1.15Zm.59.21-3.12,8.69-1.21-.44L54,117Z"/><path d="M41.48,110.85l-.68.9-5.16,1.48a3.4,3.4,0,0,0-.8.35,1.87,1.87,0,0,0-.57.5h0A1.12,1.12,0,0,0,34,115a1.27,1.27,0,0,0,.55.79,1.29,1.29,0,0,0,.93.29,1.52,1.52,0,0,0,.91-.5h0l1.07.81h0a3.06,3.06,0,0,1-1.81,1,2.51,2.51,0,0,1-1.83-.56,2.74,2.74,0,0,1-1.16-1.66,2.31,2.31,0,0,1,.53-1.83h0a2.82,2.82,0,0,1,.78-.7,4.22,4.22,0,0,1,1.06-.47l4.33-1.29-2.79-2.1.74-1Z"/><path d="M32.87,103.23a2.54,2.54,0,0,1,.82,1.93,2.72,2.72,0,0,1-1,1.78l-3.09,2.84a2.64,2.64,0,0,1-1.87.81,2.57,2.57,0,0,1-1.84-1,2.61,2.61,0,0,1-.83-1.92,2.67,2.67,0,0,1,1-1.79l3.09-2.85a2.68,2.68,0,0,1,1.86-.81A2.57,2.57,0,0,1,32.87,103.23Zm-.91.83a1.24,1.24,0,0,0-1-.5,1.44,1.44,0,0,0-1,.46L27,106.86a1.52,1.52,0,0,0-.54.92,1.29,1.29,0,0,0,.42,1,1.32,1.32,0,0,0,1,.5,1.53,1.53,0,0,0,1-.46L31.85,106a1.54,1.54,0,0,0,.54-.93A1.25,1.25,0,0,0,32,104.06Z"/><path d="M28.69,98.31l-1,.6-5.34-.42a3.64,3.64,0,0,0-.88,0,2.06,2.06,0,0,0-.71.27h0a1.09,1.09,0,0,0-.55.73,1.28,1.28,0,0,0,.23.94,1.3,1.3,0,0,0,.77.59,1.53,1.53,0,0,0,1-.14h0l.72,1.13h0a3,3,0,0,1-2,.25,2.47,2.47,0,0,1-1.52-1.16,2.76,2.76,0,0,1-.5-2,2.29,2.29,0,0,1,1.14-1.53h0a2.87,2.87,0,0,1,1-.38,4.1,4.1,0,0,1,1.17-.07l4.49.31-1.86-3,1-.65Z"/><path d="M23.41,88.38a3.14,3.14,0,0,1,.26,1.37,2.35,2.35,0,0,1-.4,1.18,3.07,3.07,0,0,1-1,.91l-.5-1.22a1.22,1.22,0,0,0,.63-.77,1.59,1.59,0,0,0-.11-1,1.35,1.35,0,0,0-.7-.79,1.26,1.26,0,0,0-1,0l-.26.1a1.51,1.51,0,0,0-.86.72,1.21,1.21,0,0,0,0,1l.25.61L18.53,91l-.24-.6a1.1,1.1,0,0,0-.62-.66,1.31,1.31,0,0,0-1,.07l-.26.11a1.13,1.13,0,0,0-.67.61,1.3,1.3,0,0,0,.06.94,1.24,1.24,0,0,0,.57.66,1.48,1.48,0,0,0,1,.1l.5,1.22a3,3,0,0,1-2-.15,2.47,2.47,0,0,1-1.23-1.36,2.58,2.58,0,0,1-.12-2A2.34,2.34,0,0,1,16,88.72l.14-.06a2,2,0,0,1,1.25-.11,2.16,2.16,0,0,1,1.1.7,1.9,1.9,0,0,1,.24-1.37,2.56,2.56,0,0,1,1.21-.94l.14-.06a2.52,2.52,0,0,1,2-.06A2.73,2.73,0,0,1,23.41,88.38Z"/><circle class="cls-1" cx="70" cy="70" r="69.5"/><circle class="cls-1" cx="70" cy="70" r="43.5"/></g></g></svg>