<svg width="181" height="181" viewBox="0 0 181 181" fill="none" xmlns="http://www.w3.org/2000/svg">
<path d="M90.4762 0C40.7143 0 0 40.6238 0 90.6572C0 135.895 33.1143 173.443 76.3619 180.229V116.895H53.381V90.6572H76.3619V70.6619C76.3619 47.9524 89.8429 35.4667 110.562 35.4667C120.424 35.4667 130.738 37.1857 130.738 37.1857V59.5333H119.338C108.119 59.5333 104.59 66.5 104.59 73.6476V90.6572H129.743L125.671 116.895H104.59V180.229C125.911 176.861 145.325 165.983 159.328 149.558C173.331 133.132 181.001 112.242 180.952 90.6572C180.952 40.6238 140.238 0 90.4762 0Z" fill="#EBEBEB"/>
</svg>
