<svg width="182" height="145" viewBox="0 0 182 145" fill="none" xmlns="http://www.w3.org/2000/svg">
<path d="M163.143 126.809H145.048V47.6428L90.7618 81.5714L36.4761 47.6428V126.809H18.3809V18.2381H29.238L90.7618 56.6904L152.286 18.2381H163.143M163.143 0.142822H18.3809C8.33803 0.142822 0.285645 8.1952 0.285645 18.2381V126.809C0.285645 131.609 2.1921 136.211 5.58562 139.605C8.97913 142.998 13.5817 144.905 18.3809 144.905H163.143C167.942 144.905 172.545 142.998 175.938 139.605C179.332 136.211 181.238 131.609 181.238 126.809V18.2381C181.238 8.1952 173.095 0.142822 163.143 0.142822Z" fill="#EBEBEB"/>
</svg>
