<svg width="182" height="181" viewBox="0 0 182 181" fill="none" xmlns="http://www.w3.org/2000/svg">
<path d="M53.1427 0.0476074H129.143C158.095 0.0476074 181.619 23.5714 181.619 52.5238V128.524C181.619 142.441 176.09 155.789 166.249 165.63C156.408 175.471 143.06 181 129.143 181H53.1427C24.1903 181 0.666504 157.476 0.666504 128.524V52.5238C0.666504 38.6062 6.19523 25.2587 16.0364 15.4175C25.8776 5.57633 39.2251 0.0476074 53.1427 0.0476074ZM51.3332 18.1428C42.6947 18.1428 34.41 21.5745 28.3017 27.6828C22.1934 33.7911 18.7617 42.0758 18.7617 50.7143V130.333C18.7617 148.338 33.3284 162.905 51.3332 162.905H130.952C139.591 162.905 147.875 159.473 153.984 153.365C160.092 147.256 163.524 138.972 163.524 130.333V50.7143C163.524 32.7095 148.957 18.1428 130.952 18.1428H51.3332ZM138.643 31.7143C141.642 31.7143 144.519 32.9058 146.64 35.0268C148.761 37.1477 149.952 40.0243 149.952 43.0238C149.952 46.0233 148.761 48.8999 146.64 51.0208C144.519 53.1418 141.642 54.3333 138.643 54.3333C135.643 54.3333 132.767 53.1418 130.646 51.0208C128.525 48.8999 127.333 46.0233 127.333 43.0238C127.333 40.0243 128.525 37.1477 130.646 35.0268C132.767 32.9058 135.643 31.7143 138.643 31.7143ZM91.1427 45.2857C103.141 45.2857 114.647 50.0518 123.131 58.5356C131.615 67.0194 136.381 78.5259 136.381 90.5238C136.381 102.522 131.615 114.028 123.131 122.512C114.647 130.996 103.141 135.762 91.1427 135.762C79.1448 135.762 67.6383 130.996 59.1545 122.512C50.6707 114.028 45.9046 102.522 45.9046 90.5238C45.9046 78.5259 50.6707 67.0194 59.1545 58.5356C67.6383 50.0518 79.1448 45.2857 91.1427 45.2857ZM91.1427 63.3809C83.944 63.3809 77.0401 66.2406 71.9498 71.3309C66.8595 76.4212 63.9998 83.3251 63.9998 90.5238C63.9998 97.7225 66.8595 104.626 71.9498 109.717C77.0401 114.807 83.944 117.667 91.1427 117.667C98.3414 117.667 105.245 114.807 110.336 109.717C115.426 104.626 118.286 97.7225 118.286 90.5238C118.286 83.3251 115.426 76.4212 110.336 71.3309C105.245 66.2406 98.3414 63.3809 91.1427 63.3809Z" fill="#EBEBEB"/>
</svg>
