<svg width="191" height="154" viewBox="0 0 191 154" fill="none" xmlns="http://www.w3.org/2000/svg">
<path d="M190.086 18.1428C183.119 21.3095 175.61 23.3905 167.829 24.3857C175.791 19.5905 181.943 11.9905 184.838 2.85237C177.329 7.37618 169.005 10.5428 160.229 12.3524C153.081 4.57142 143.038 0.0476074 131.638 0.0476074C110.376 0.0476074 93.0048 17.419 93.0048 38.8619C93.0048 41.9381 93.3667 44.9238 94 47.7286C61.7905 46.1 33.1096 30.6286 14.0191 7.19523C10.6715 12.8952 8.77148 19.5905 8.77148 26.6476C8.77148 40.1286 15.5572 52.0714 26.0524 58.8571C19.6286 58.8571 13.6572 57.0476 8.40957 54.3333C8.40957 54.3333 8.40957 54.3333 8.40957 54.6047C8.40957 73.4238 21.8 89.1667 39.5334 92.6952C36.2762 93.6 32.8381 94.0524 29.3096 94.0524C26.8667 94.0524 24.4239 93.7809 22.0715 93.3286C26.9572 108.619 41.1619 120.019 58.2619 120.29C45.0524 130.786 28.3143 136.938 10.0381 136.938C6.96195 136.938 3.88576 136.757 0.80957 136.395C18 147.433 38.4477 153.857 60.3429 153.857C131.638 153.857 170.814 94.6857 170.814 43.3857C170.814 41.6667 170.814 40.0381 170.724 38.319C178.324 32.8905 184.838 26.0143 190.086 18.1428Z" fill="#EBEBEB"/>
</svg>
