<svg width="181" height="181" viewBox="0 0 181 181" fill="none" xmlns="http://www.w3.org/2000/svg">
<path d="M90.8618 0.0476074C41.4618 0.0476074 1.19989 40.3095 1.19989 89.7095C1.19989 105.543 5.36179 120.924 13.1427 134.495L0.476074 181L47.9761 168.514C61.0951 175.662 75.8427 179.462 90.8618 179.462C140.262 179.462 180.524 139.2 180.524 89.8C180.524 65.8238 171.205 43.2952 154.286 26.3762C137.367 9.36665 114.838 0.0476074 90.8618 0.0476074ZM90.9523 15.1571C110.857 15.1571 129.495 22.9381 143.609 37.0524C157.633 51.1667 165.414 69.8952 165.414 89.8C165.414 130.876 131.938 164.262 90.8618 164.262C77.4713 164.262 64.3523 160.733 52.9523 153.857L50.238 152.319L22.0094 159.738L29.5189 132.233L27.7094 129.338C20.2904 117.667 16.3094 103.824 16.3094 89.7095C16.3999 48.6333 49.7856 15.1571 90.9523 15.1571ZM59.1046 48.2714C57.657 48.2714 55.2142 48.8143 53.1332 51.0762C51.1427 53.3381 45.2618 58.8571 45.2618 69.8047C45.2618 80.8428 53.3142 91.4286 54.3094 92.9667C55.5761 94.5048 70.2332 117.124 92.7618 126.714C98.0999 129.157 102.262 130.514 105.519 131.51C110.857 133.229 115.743 132.957 119.633 132.414C123.976 131.781 132.843 126.986 134.743 121.738C136.643 116.49 136.643 112.057 136.1 111.062C135.467 110.157 134.019 109.614 131.757 108.619C129.495 107.352 118.457 101.924 116.467 101.2C114.386 100.476 113.119 100.114 111.4 102.286C109.952 104.548 105.609 109.614 104.343 111.062C102.986 112.6 101.719 112.781 99.5475 111.695C97.1951 110.519 89.957 108.167 81.4523 100.567C74.757 94.5952 70.3237 87.2667 68.9665 85.0048C67.8808 82.8333 68.8761 81.4762 69.9618 80.4809C70.957 79.4857 72.4046 77.8571 73.3094 76.5C74.4856 75.2333 74.8475 74.2381 75.5713 72.7905C76.2951 71.2524 75.9332 69.9857 75.3904 68.9C74.8475 67.9047 70.3237 56.6857 68.4237 52.2524C66.6142 47.9095 64.8046 48.4524 63.357 48.3619C62.0904 48.3619 60.6427 48.2714 59.1046 48.2714Z" fill="#EBEBEB"/>
</svg>
